<?xml version="1.0" encoding="utf-8"?>
<!-- Generator: Adobe Illustrator 19.0.0, SVG Export Plug-In . SVG Version: 6.00 Build 0)  -->
<svg version="1.1" id="Layer_1" xmlns="http://www.w3.org/2000/svg" xmlns:xlink="http://www.w3.org/1999/xlink" x="0px" y="0px"
	 viewBox="0 0 183.9 179" style="enable-background:new 0 0 183.9 179;" xml:space="preserve">
<style type="text/css">
	.st0{fill:#1497C2;}
	.st1{fill:#FFFFFF;}
	.st2{fill:none;stroke:#148CB4;stroke-width:4;stroke-miterlimit:10;}
</style>
<g id="XMLID_60_">
	<path id="XMLID_359_" class="st0" d="M171.9,179H12c-6.6,0-12-5.4-12-12V12C0,5.4,5.4,0,12,0h159.9c6.6,0,12,5.4,12,12v155
		C183.9,173.6,178.5,179,171.9,179z"/>
	<g id="XMLID_80_">
		<g id="XMLID_74_">
			<path id="XMLID_78_" class="st0" d="M99.7,55.1c7.1,8.2,18.5,11.4,28.8,8.2c3.1-1,1.8-5.8-1.3-4.8c-8.8,2.8-18,0.1-24-6.9
				C101.2,49.2,97.6,52.7,99.7,55.1L99.7,55.1z"/>
		</g>
	</g>
	<g>
		<rect id="XMLID_61_" x="20.8" y="42.1" class="st1" width="15.8" height="94.9"/>
		<rect id="XMLID_59_" x="60.6" y="42.1" class="st1" width="15.8" height="94.9"/>
		<rect id="XMLID_58_" x="84.5" y="42.1" class="st1" width="15.8" height="94.9"/>
		<rect id="XMLID_50_" x="139.6" y="42.1" class="st1" width="23.5" height="94.9"/>
		<rect id="XMLID_39_" x="44.7" y="42.1" class="st1" width="7.7" height="94.9"/>
		<rect id="XMLID_38_" x="108" y="42.1" class="st1" width="7.7" height="94.9"/>
		<rect id="XMLID_16_" x="123.8" y="42.1" class="st1" width="7.7" height="94.9"/>
	</g>
</g>
<path id="XMLID_57_" class="st2" d="M171.9,179H12c-6.6,0-12-5.4-12-12V12C0,5.4,5.4,0,12,0h159.9c6.6,0,12,5.4,12,12v155
	C183.9,173.6,178.5,179,171.9,179z"/>
</svg>
