<?xml version="1.0" encoding="utf-8"?>
<!-- Generator: Adobe Illustrator 19.0.0, SVG Export Plug-In . SVG Version: 6.00 Build 0)  -->
<svg version="1.1" id="Layer_1" xmlns="http://www.w3.org/2000/svg" xmlns:xlink="http://www.w3.org/1999/xlink" x="0px" y="0px"
	 viewBox="0 0 183.9 179" style="enable-background:new 0 0 183.9 179;" xml:space="preserve">
<style type="text/css">
	.st0{fill:#1497C2;}
	.st1{fill:#7AD1EA;}
	.st2{fill:#FFFFFF;}
	.st3{fill:none;stroke:#148CB4;stroke-width:4;stroke-miterlimit:10;}
</style>
<g id="XMLID_60_">
	<path id="XMLID_359_" class="st0" d="M171.9,179H12c-6.6,0-12-5.4-12-12V12C0,5.4,5.4,0,12,0h159.9c6.6,0,12,5.4,12,12v155
		C183.9,173.6,178.5,179,171.9,179z"/>
	<g id="XMLID_80_">
		<g id="XMLID_74_">
			<path id="XMLID_78_" class="st0" d="M99.7,55.1c7.1,8.2,18.5,11.4,28.8,8.2c3.1-1,1.8-5.8-1.3-4.8c-8.8,2.8-18,0.1-24-6.9
				C101.2,49.2,97.6,52.7,99.7,55.1L99.7,55.1z"/>
		</g>
	</g>
	<g id="XMLID_313_">
		<g id="XMLID_50_">
			<path id="XMLID_39_" class="st1" d="M123.5,108.5H34.3c-4.1,0-7.4-3.3-7.4-7.4V53.9c0-4.1,3.3-7.4,7.4-7.4h89.2
				c4.1,0,7.4,3.3,7.4,7.4v47.2C130.9,105.2,127.5,108.5,123.5,108.5z"/>
			<rect id="XMLID_38_" x="24" y="77.5" class="st0" width="106.9" height="13"/>
		</g>
		<g id="XMLID_314_">
			<path id="XMLID_16_" class="st2" d="M148.8,132.5H59.7c-4.1,0-7.4-3.3-7.4-7.4V77.9c0-4.1,3.3-7.4,7.4-7.4h89.2
				c4.1,0,7.4,3.3,7.4,7.4v47.2C156.3,129.2,152.9,132.5,148.8,132.5z"/>
			<rect id="XMLID_315_" x="52.3" y="101.5" class="st0" width="107.7" height="13"/>
		</g>
	</g>
</g>
<path id="XMLID_57_" class="st3" d="M171.9,179H12c-6.6,0-12-5.4-12-12V12C0,5.4,5.4,0,12,0h159.9c6.6,0,12,5.4,12,12v155
	C183.9,173.6,178.5,179,171.9,179z"/>
</svg>
