<?xml version="1.0" encoding="utf-8"?>
<!-- Generator: Adobe Illustrator 19.0.0, SVG Export Plug-In . SVG Version: 6.00 Build 0)  -->
<svg version="1.1" id="Layer_1" xmlns="http://www.w3.org/2000/svg" xmlns:xlink="http://www.w3.org/1999/xlink" x="0px" y="0px"
	 viewBox="-307 311 183.9 179" style="enable-background:new -307 311 183.9 179;" xml:space="preserve">
<style type="text/css">
	.st0{fill:#1497C2;}
	.st1{fill:none;stroke:#148CB4;stroke-width:4;stroke-miterlimit:10;}
	.st2{fill:#FFFFFF;}
	.st3{fill:#7AD0E9;}
	.st4{fill:#1496C1;}
</style>
<path id="XMLID_16_" class="st0" d="M-135.1,490H-295c-6.6,0-12-5.4-12-12V323c0-6.6,5.4-12,12-12h159.9c6.6,0,12,5.4,12,12v155
	C-123.1,484.6-128.5,490-135.1,490z"/>
<path id="XMLID_57_" class="st1" d="M-135.1,490H-295c-6.6,0-12-5.4-12-12V323c0-6.6,5.4-12,12-12h159.9c6.6,0,12,5.4,12,12v155
	C-123.1,484.6-128.5,490-135.1,490z"/>
<g>
	<path id="XMLID_191_" class="st2" d="M-171.7,458.4l-64.3,11.4c-6.5,1.1-12.8-3.2-13.9-9.7l-18.3-103.6c-1.1-6.5,3.2-12.8,9.7-13.9
		l64.3-11.4c6.5-1.1,12.8,3.2,13.9,9.7l18.3,103.6C-160.8,451-165.2,457.3-171.7,458.4z"/>
	<path id="XMLID_192_" class="st3" d="M-181.9,444.2l-49.8,8.8c-6.5,1.1-12.8-3.2-13.9-9.7l-14.3-80.8c-1.1-6.5,3.2-12.8,9.7-13.9
		l49.8-8.8c6.5-1.1,12.8,3.2,13.9,9.7l14.3,80.8C-171.1,436.8-175.4,443-181.9,444.2z"/>
	<ellipse id="XMLID_20_" class="st4" cx="-204.1" cy="456.9" rx="4.3" ry="3.7"/>
</g>
</svg>
