<?xml version="1.0" encoding="utf-8"?>
<!-- Generator: Adobe Illustrator 19.0.0, SVG Export Plug-In . SVG Version: 6.00 Build 0)  -->
<svg version="1.1" id="Layer_1" xmlns="http://www.w3.org/2000/svg" xmlns:xlink="http://www.w3.org/1999/xlink" x="0px" y="0px"
	 viewBox="0 0 183.9 179" style="enable-background:new 0 0 183.9 179;" xml:space="preserve">
<style type="text/css">
	.st0{fill:#1497C2;}
	.st1{fill:#FFFFFF;}
	.st2{fill:none;stroke:#148CB4;stroke-width:4;stroke-miterlimit:10;}
</style>
<g id="XMLID_60_">
	<path id="XMLID_359_" class="st0" d="M171.9,179H12c-6.6,0-12-5.4-12-12V12C0,5.4,5.4,0,12,0h159.9c6.6,0,12,5.4,12,12v155
		C183.9,173.6,178.5,179,171.9,179z"/>
	<g id="XMLID_80_">
		<g id="XMLID_26_">
			<path id="XMLID_30_" class="st0" d="M99.7,55.1c7.1,8.2,18.5,11.4,28.8,8.2c3.1-1,1.8-5.8-1.3-4.8c-8.8,2.8-18,0.1-24-6.9
				C101.2,49.2,97.6,52.7,99.7,55.1L99.7,55.1z"/>
		</g>
	</g>
	<g id="XMLID_1_">
		<g id="XMLID_244_">
			<path id="XMLID_248_" class="st1" d="M129.2,113.3c-2.7,19.3-20.8,32.5-40.4,29.5s-33.2-21.1-30.5-40.4s20.8-32.5,40.4-29.5
				C118.2,75.9,131.9,94,129.2,113.3z"/>
			<path id="XMLID_247_" class="st0" d="M86,106.4c-0.5,3.6-3.8,6-7.5,5.5c-3.6-0.6-6.1-3.9-5.6-7.5c0.5-3.6,3.8-6,7.5-5.5
				C84,99.5,86.5,102.8,86,106.4z"/>
			<path id="XMLID_246_" class="st0" d="M112.8,101.6c-0.5,3.3-3.8,5.4-7.4,4.9s-6.2-3.6-5.7-6.9c0.5-3.3,3.8-5.4,7.4-4.9
				S113.3,98.3,112.8,101.6z"/>
			<path id="XMLID_245_" class="st0" d="M69.5,121.4l51.6-9.3c0,0-0.6,17.5-18.4,23S69.5,121.4,69.5,121.4z"/>
		</g>
		<path id="XMLID_249_" class="st1" d="M81.6,34.6c0,0-2.6,15.6,1.2,26.8c3.8,11.1,6.7-12.1,5.1-19.2C86.2,35.1,86.8,30.6,81.6,34.6
			z"/>
		<path id="XMLID_250_" class="st1" d="M135.9,49.6c0,0-10.5,11.9-13.1,23.4s12.1-6.7,14.5-13.6C139.6,52.5,142.4,48.9,135.9,49.6z"
			/>
		<path id="XMLID_251_" class="st1" d="M29.3,61.3c0,0,9,13,19.5,18.4s-3.6-13.4-9.7-17.3S30.3,54.8,29.3,61.3z"/>
	</g>
</g>
<path id="XMLID_57_" class="st2" d="M171.9,179H12c-6.6,0-12-5.4-12-12V12C0,5.4,5.4,0,12,0h159.9c6.6,0,12,5.4,12,12v155
	C183.9,173.6,178.5,179,171.9,179z"/>
</svg>
