<?xml version="1.0" encoding="utf-8"?>
<!-- Generator: Adobe Illustrator 19.0.0, SVG Export Plug-In . SVG Version: 6.00 Build 0)  -->
<svg version="1.1" id="Layer_1" xmlns="http://www.w3.org/2000/svg" xmlns:xlink="http://www.w3.org/1999/xlink" x="0px" y="0px"
	 viewBox="0 0 183.9 179" style="enable-background:new 0 0 183.9 179;" xml:space="preserve">
<style type="text/css">
	.st0{fill:#1497C2;}
	.st1{fill:#FFFFFF;}
	.st2{fill:#7BD1E9;}
	.st3{fill:none;stroke:#148CB4;stroke-width:4;stroke-miterlimit:10;}
</style>
<path id="XMLID_61_" class="st0" d="M171.9,179H12c-6.6,0-12-5.4-12-12V12C0,5.4,5.4,0,12,0h159.9c6.6,0,12,5.4,12,12v155
	C183.9,173.6,178.5,179,171.9,179z"/>
<g id="XMLID_16_">
	<path id="XMLID_60_" class="st1" d="M121,149.6H62.9c-6.6,0-12-5.4-12-12V41.4c0-6.6,5.4-12,12-12H121c6.6,0,12,5.4,12,12v96.2
		C133,144.2,127.6,149.6,121,149.6z"/>
	<g id="XMLID_38_">
		<path id="XMLID_59_" class="st2" d="M120.4,81.4H63.5c-2,0-3.7-1.7-3.7-3.7v-1.4c0-2,1.7-3.7,3.7-3.7h56.9c2,0,3.7,1.7,3.7,3.7
			v1.4C124.1,79.8,122.4,81.4,120.4,81.4z"/>
		<path id="XMLID_58_" class="st2" d="M120.4,106.4H63.5c-2,0-3.7-1.7-3.7-3.7v-1.4c0-2,1.7-3.7,3.7-3.7h56.9c2,0,3.7,1.7,3.7,3.7
			v1.4C124.1,104.7,122.4,106.4,120.4,106.4z"/>
		<path id="XMLID_50_" class="st2" d="M120.4,132.6H63.5c-2,0-3.7-1.7-3.7-3.7v-1.4c0-2,1.7-3.7,3.7-3.7h56.9c2,0,3.7,1.7,3.7,3.7
			v1.4C124.1,130.9,122.4,132.6,120.4,132.6z"/>
		<path id="XMLID_39_" class="st2" d="M120.4,55.5H63.5c-2,0-3.7-1.7-3.7-3.7v-1.4c0-2,1.7-3.7,3.7-3.7h56.9c2,0,3.7,1.7,3.7,3.7
			v1.4C124.1,53.8,122.4,55.5,120.4,55.5z"/>
	</g>
</g>
<path id="XMLID_57_" class="st3" d="M171.9,179H12c-6.6,0-12-5.4-12-12V12C0,5.4,5.4,0,12,0h159.9c6.6,0,12,5.4,12,12v155
	C183.9,173.6,178.5,179,171.9,179z"/>
</svg>
