<?xml version="1.0" encoding="utf-8"?>
<!-- Generator: Adobe Illustrator 19.0.0, SVG Export Plug-In . SVG Version: 6.00 Build 0)  -->
<svg version="1.1" id="Layer_1" xmlns="http://www.w3.org/2000/svg" xmlns:xlink="http://www.w3.org/1999/xlink" x="0px" y="0px"
	 viewBox="0 0 183.9 179" style="enable-background:new 0 0 183.9 179;" xml:space="preserve">
<style type="text/css">
	.st0{fill:#1497C2;}
	.st1{fill:#FFFFFF;}
	.st2{fill:#7AD1EA;}
	.st3{fill:none;stroke:#148CB4;stroke-width:4;stroke-miterlimit:10;}
</style>
<g id="XMLID_149_">
	<path id="XMLID_85_" class="st0" d="M171.9,179H12c-6.6,0-12-5.4-12-12V12C0,5.4,5.4,0,12,0h159.9c6.6,0,12,5.4,12,12v155
		C183.9,173.6,178.5,179,171.9,179z"/>
	<g id="XMLID_16_">
		<g id="XMLID_105_">
			<ellipse id="XMLID_109_" class="st1" cx="133.8" cy="107.2" rx="38.1" ry="35.9"/>
			<ellipse id="XMLID_108_" class="st0" cx="109.4" cy="108.1" rx="7" ry="6.7"/>
			<ellipse id="XMLID_107_" class="st0" cx="156.2" cy="95.3" rx="7" ry="6.1"/>
			<path id="XMLID_106_" class="st0" d="M109.4,122.1l53.8-14.9c0,0,2.4,17.7-19.4,26S109.4,122.1,109.4,122.1z"/>
		</g>
		<g id="XMLID_123_">
			
				<ellipse id="XMLID_127_" transform="matrix(0.7576 0.6528 -0.6528 0.7576 90.2485 -1.3822)" class="st1" cx="47" cy="120.8" rx="35.8" ry="33.8"/>
			
				<ellipse id="XMLID_126_" transform="matrix(0.7576 0.6528 -0.6528 0.7576 76.5393 6.8019)" class="st0" cx="29.1" cy="106.4" rx="6.6" ry="6.3"/>
			
				<ellipse id="XMLID_125_" transform="matrix(0.7576 0.6528 -0.6528 0.7576 99.3081 -15.2817)" class="st0" cx="70.2" cy="126.1" rx="6.6" ry="5.7"/>
			<path id="XMLID_124_" class="st0" d="M20.5,116.4l47.4,22.4c0,0-9.2,14.1-29.7,6.6C17.6,137.9,20.5,116.4,20.5,116.4z"/>
		</g>
		<g id="XMLID_128_">
			
				<ellipse id="XMLID_132_" transform="matrix(0.949 0.3153 -0.3153 0.949 20.7148 -20.2813)" class="st2" cx="73.1" cy="53.9" rx="31.9" ry="30.2"/>
			
				<ellipse id="XMLID_131_" transform="matrix(0.949 0.3153 -0.3153 0.949 17.8901 -14.3867)" class="st0" cx="53.4" cy="48.1" rx="5.9" ry="5.6"/>
			
				<ellipse id="XMLID_130_" transform="matrix(0.949 0.3153 -0.3153 0.949 20.6598 -27.0734)" class="st0" cx="94" cy="50.3" rx="5.9" ry="5.1"/>
			<path id="XMLID_129_" class="st0" d="M49.7,59.3l46.7,2.4c0,0-2.8,14.8-22.3,15.6S49.7,59.3,49.7,59.3z"/>
		</g>
	</g>
</g>
<path id="XMLID_57_" class="st3" d="M171.9,179H12c-6.6,0-12-5.4-12-12V12C0,5.4,5.4,0,12,0h159.9c6.6,0,12,5.4,12,12v155
	C183.9,173.6,178.5,179,171.9,179z"/>
</svg>
