<?xml version="1.0" encoding="utf-8"?>
<!-- Generator: Adobe Illustrator 19.0.0, SVG Export Plug-In . SVG Version: 6.00 Build 0)  -->
<svg version="1.1" id="Layer_1" xmlns="http://www.w3.org/2000/svg" xmlns:xlink="http://www.w3.org/1999/xlink" x="0px" y="0px"
	 viewBox="0 0 183.9 179" style="enable-background:new 0 0 183.9 179;" xml:space="preserve">
<style type="text/css">
	.st0{fill:#1497C2;}
	.st1{fill:#FFFFFF;}
	.st2{fill:#7AD1EA;}
	.st3{fill:none;stroke:#148CB4;stroke-width:4;stroke-miterlimit:10;}
</style>
<g id="XMLID_149_">
	<path id="XMLID_85_" class="st0" d="M171.9,179H12c-6.6,0-12-5.4-12-12V12C0,5.4,5.4,0,12,0h159.9c6.6,0,12,5.4,12,12v155
		C183.9,173.6,178.5,179,171.9,179z"/>
	<g id="XMLID_133_">
		<path id="XMLID_137_" class="st1" d="M109.7,107.4c-3.4,24.1-26,40.5-50.4,36.8c-24.4-3.8-41.4-26.3-38-50.4s26-40.5,50.4-36.8
			S113.1,83.3,109.7,107.4z"/>
		<path id="XMLID_136_" class="st0" d="M64.6,95.6c-0.6,4.5-4.8,7.5-9.3,6.8c-4.5-0.7-7.6-4.9-7-9.4c0.6-4.5,4.8-7.5,9.3-6.8
			C62.1,87,65.2,91.1,64.6,95.6z"/>
		<path id="XMLID_135_" class="st0" d="M101.7,91.4c-0.6,4.1-4.7,6.8-9.2,6.1c-4.5-0.7-7.7-4.5-7.1-8.6s4.7-6.8,9.2-6.1
			C99.1,83.5,102.3,87.3,101.7,91.4z"/>
		<path id="XMLID_134_" class="st0" d="M45.7,115.9l54-10.1c0,0-0.7,21.8-23,28.6C54.4,141.2,45.7,115.9,45.7,115.9z"/>
	</g>
	<path id="XMLID_139_" class="st2" d="M118.7,49.3c38.4-12.3,53.1,42.1,44,62.4c-7,15.5-26.6,16.2-26.6,16.2l-2.7-20
		c0,0,13.6-2,17.4-2c2.9,0-9.8-38.5-9.8-38.5l-15.6,3.4L118.7,49.3z"/>
</g>
<path id="XMLID_57_" class="st3" d="M171.9,179H12c-6.6,0-12-5.4-12-12V12C0,5.4,5.4,0,12,0h159.9c6.6,0,12,5.4,12,12v155
	C183.9,173.6,178.5,179,171.9,179z"/>
</svg>
