<?xml version="1.0" encoding="utf-8"?>
<!-- Generator: Adobe Illustrator 19.0.0, SVG Export Plug-In . SVG Version: 6.00 Build 0)  -->
<svg version="1.1" id="Layer_1" xmlns="http://www.w3.org/2000/svg" xmlns:xlink="http://www.w3.org/1999/xlink" x="0px" y="0px"
	 viewBox="0 0 183.9 179" style="enable-background:new 0 0 183.9 179;" xml:space="preserve">
<style type="text/css">
	.st0{fill:#1497C2;}
	.st1{fill:#FFFFFF;}
	.st2{fill:#7AD1EA;}
	.st3{fill:none;stroke:#148CB4;stroke-width:4;stroke-miterlimit:10;}
</style>
<g id="XMLID_149_">
	<path id="XMLID_85_" class="st0" d="M171.9,179H12c-6.6,0-12-5.4-12-12V12C0,5.4,5.4,0,12,0h159.9c6.6,0,12,5.4,12,12v155
		C183.9,173.6,178.5,179,171.9,179z"/>
	<g id="XMLID_16_">
		<g id="XMLID_138_">
			<g id="XMLID_72_">
				<path id="XMLID_76_" class="st1" d="M21.6,100.6C34.8,99.8,48,98.6,61.1,97c4-0.5,7.5-3.1,7.5-7.5c0-3.7-3.5-8-7.5-7.5
					c-13.1,1.6-26.3,2.8-39.5,3.6C12,86.3,12,101.3,21.6,100.6L21.6,100.6z"/>
			</g>
		</g>
		<g id="XMLID_140_">
			<g id="XMLID_67_">
				<path id="XMLID_71_" class="st1" d="M32,68.6c0.2,13.9,1.2,27.7,2.9,41.4c0.5,4,3.1,7.5,7.5,7.5c3.7,0,8-3.5,7.5-7.5
					c-1.8-13.7-2.7-27.6-2.9-41.4C46.8,58.9,31.8,58.9,32,68.6L32,68.6z"/>
			</g>
		</g>
		<g id="XMLID_141_">
			<path id="XMLID_145_" class="st2" d="M161.9,96.1c-3.3,23.1-25,39-48.4,35.3c-23.5-3.6-39.8-25.3-36.6-48.5s25-39,48.4-35.3
				S165.2,72.9,161.9,96.1z"/>
			<path id="XMLID_144_" class="st0" d="M110.2,87.9c-0.6,4.3-4.6,7.2-8.9,6.6c-4.3-0.7-7.3-4.7-6.7-9c0.6-4.3,4.6-7.2,8.9-6.6
				C107.7,79.5,110.8,83.6,110.2,87.9z"/>
			<path id="XMLID_143_" class="st0" d="M142.3,82c-0.6,3.9-4.5,6.5-8.8,5.9c-4.3-0.7-7.4-4.4-6.8-8.3c0.6-3.9,4.5-6.5,8.8-5.9
				S142.8,78.1,142.3,82z"/>
			<path id="XMLID_142_" class="st0" d="M90.4,105.8l61.8-11.2c0,0-0.7,21-22.1,27.5S90.4,105.8,90.4,105.8z"/>
		</g>
	</g>
</g>
<path id="XMLID_57_" class="st3" d="M171.9,179H12c-6.6,0-12-5.4-12-12V12C0,5.4,5.4,0,12,0h159.9c6.6,0,12,5.4,12,12v155
	C183.9,173.6,178.5,179,171.9,179z"/>
</svg>
