<?xml version="1.0" encoding="utf-8"?>
<!-- Generator: Adobe Illustrator 19.0.0, SVG Export Plug-In . SVG Version: 6.00 Build 0)  -->
<svg version="1.1" id="Capa_1" xmlns="http://www.w3.org/2000/svg" xmlns:xlink="http://www.w3.org/1999/xlink" x="0px" y="0px"
	 viewBox="-89 -57 212 172" style="enable-background:new -89 -57 212 172;" xml:space="preserve">
<style type="text/css">
	.st0{fill:#11A5D7;}
</style>
<g>
	<g>
		<path class="st0" d="M14.4,44.4H9.4c-2.6,0-4.8-2.1-4.8-4.7c0-1,0.4-1.9,1.1-2.6c2.9-2.9,5.4-6.7,7.2-10.8
			c0.4,0.3,0.8,0.5,1.2,0.5c2.8,0,6.2-6.3,6.2-10.5c0-4.3-0.4-7.7-3.2-7.7c-0.3,0-0.7,0.1-1.1,0.1C15.8-3.1,12.9-17.5-4.8-17.5
			c-18.5,0-20.6,14.4-20.8,26c-0.3-0.1-0.5-0.1-0.8-0.1c-2.8,0-3.2,3.5-3.2,7.7c0,4.3,3.3,10.5,6.2,10.5c0.4,0,0.7-0.1,1-0.3
			c1.8,4.1,4.2,7.8,7.1,10.7c0.7,0.7,1.1,1.6,1.1,2.6c0,2.6-2.1,4.8-4.8,4.8h-5.1c-10.8,0-19.6,8.8-19.6,19.6v5.4
			c0,3.4,2.8,6.2,6.2,6.2h65.3c3.4,0,6.2-2.8,6.2-6.2V64C34,53.2,25.3,44.4,14.4,44.4z"/>
		<path class="st0" d="M73.1-9.3H18.3c1.6,3.5,2.7,7.8,3.2,13.1c1.2,0.7,2,1.9,2.8,3.3h48.9c2.5,0,4.6-2,4.6-4.6v-7.3
			C77.6-7.3,75.6-9.3,73.1-9.3z"/>
		<path class="st0" d="M73.1,20.6H25.3c-1.3,4.9-4.5,10-8.9,11.4c-0.1,0.2-0.3,0.4-0.4,0.7v4.4h57c2.5,0,4.6-2,4.6-4.6v-7.3
			C77.6,22.7,75.6,20.6,73.1,20.6z"/>
		<path class="st0" d="M73.1,50.6H35.8c2.5,3.9,3.9,8.5,3.9,13.4v3h33.4c2.5,0,4.6-2,4.6-4.6v-7.3C77.6,52.6,75.6,50.6,73.1,50.6z"
			/>
		<path class="st0" d="M92.8-55H-58.8C-74.4-55-87-42.4-87-26.9V84.9c0,15.6,12.6,28.1,28.1,28.1H92.8c15.5,0,28.1-12.6,28.1-28.1
			V-26.9C120.9-42.4,108.3-55,92.8-55z M107.6,84.9c0,8.2-6.7,14.9-14.9,14.9H-58.8c-8.2,0-14.9-6.7-14.9-14.9V-26.9
			c0-8.2,6.7-14.9,14.9-14.9H92.8c8.2,0,14.9,6.7,14.9,14.9C107.6-26.9,107.6,84.9,107.6,84.9z"/>
	</g>
</g>
</svg>
