<?xml version="1.0" encoding="utf-8"?>
<!-- Generator: Adobe Illustrator 19.0.0, SVG Export Plug-In . SVG Version: 6.00 Build 0)  -->
<svg version="1.1" id="Layer_1" xmlns="http://www.w3.org/2000/svg" xmlns:xlink="http://www.w3.org/1999/xlink" x="0px" y="0px"
	 viewBox="0 0 183.9 179" style="enable-background:new 0 0 183.9 179;" xml:space="preserve">
<style type="text/css">
	.st0{fill:#1497C2;}
	.st1{fill:#7AD1EA;}
	.st2{fill:#FFFFFF;}
	.st3{fill:none;stroke:#148CB4;stroke-width:4;stroke-miterlimit:10;}
</style>
<g id="XMLID_60_">
	<path id="XMLID_359_" class="st0" d="M171.9,179H12c-6.6,0-12-5.4-12-12V12C0,5.4,5.4,0,12,0h159.9c6.6,0,12,5.4,12,12v155
		C183.9,173.6,178.5,179,171.9,179z"/>
	<g id="XMLID_80_">
		<g id="XMLID_74_">
			<path id="XMLID_78_" class="st0" d="M99.7,55.1c7.1,8.2,18.5,11.4,28.8,8.2c3.1-1,1.8-5.8-1.3-4.8c-8.8,2.8-18,0.1-24-6.9
				C101.2,49.2,97.6,52.7,99.7,55.1L99.7,55.1z"/>
		</g>
	</g>
	<g id="XMLID_38_">
		<path id="XMLID_656_" class="st1" d="M84.8,143l50.3,8.9c16.7-32.1,2.7-55.2,2.7-55.2s-44,3.1-49.2,3.6l-1.1-12.4l-40.9,32.8
			l35.9,32.8L84.8,143z"/>
		<path id="XMLID_16_" class="st2" d="M96.8,36.2l-51-3.7c-13.3,33.6,3,55.2,3,55.2s43.4-7.6,48.6-8.6l2.4,12.2l29.3-32.9L98.1,25.6
			L96.8,36.2z"/>
		<g id="XMLID_657_">
			<path id="XMLID_50_" class="st0" d="M79.8,42.3l5.6,0.4l-0.2,2.6c2.6,0.3,5.1,1,7.6,2.1l-0.5,6.2c-2.6-2-5.1-3-7.6-3.2
				c-1.2-0.1-2.3,0.1-3.3,0.5c-1,0.4-1.6,1.1-1.7,1.9c-0.1,0.6,0.2,1.2,0.9,1.7c0.6,0.5,2.2,1.2,4.6,2.1c2.2,0.8,3.8,1.5,5,2.2
				c1.2,0.7,2.2,1.6,2.9,2.7c0.7,1.1,1.1,2.3,1,3.5c-0.2,1.9-1.2,3.6-3.1,5.1c-1.9,1.5-4.6,2.4-8.2,2.8l-0.3,3l-5.6-0.4l0.2-2.7
				c-2.6-0.2-5.6-1-9-2.3l0.6-6.4c3,2.2,6,3.4,9,3.7c1.7,0.1,3.1-0.1,4.3-0.7c1.2-0.6,1.8-1.4,1.9-2.4c0.1-0.9-0.3-1.6-1.2-2.2
				c-0.9-0.6-2.4-1.3-4.6-2.1c-2.9-1-5-2.2-6.5-3.5c-1.4-1.3-2.1-2.9-1.9-4.7c0.2-1.8,1.1-3.3,2.7-4.5c1.6-1.2,4-2,7.1-2.5
				L79.8,42.3z"/>
		</g>
		<g id="XMLID_186_">
			<path id="XMLID_59_" class="st0" d="M101.6,105.3l5.6,0.4l-0.2,2.6c2.6,0.3,5.1,1,7.6,2.1l-0.5,6.2c-2.6-2-5.1-3-7.6-3.2
				c-1.2-0.1-2.3,0.1-3.3,0.5c-1,0.4-1.6,1.1-1.7,1.9c-0.1,0.6,0.2,1.2,0.9,1.7c0.6,0.5,2.2,1.2,4.6,2.1c2.2,0.8,3.8,1.5,5,2.2
				c1.2,0.7,2.2,1.6,2.9,2.7c0.7,1.1,1.1,2.3,1,3.5c-0.2,1.9-1.2,3.6-3.1,5.1c-1.9,1.5-4.6,2.4-8.2,2.8l-0.3,3l-5.6-0.4l0.2-2.7
				c-2.6-0.2-5.6-1-9-2.3l0.6-6.4c3,2.2,6,3.4,9,3.7c1.7,0.1,3.1-0.1,4.3-0.7c1.2-0.6,1.8-1.4,1.9-2.4c0.1-0.9-0.3-1.6-1.2-2.2
				c-0.9-0.6-2.4-1.3-4.6-2.1c-2.9-1-5-2.2-6.5-3.5c-1.4-1.3-2.1-2.9-1.9-4.7c0.2-1.8,1.1-3.3,2.7-4.5c1.6-1.2,4-2,7.1-2.5
				L101.6,105.3z"/>
		</g>
	</g>
</g>
<path id="XMLID_57_" class="st3" d="M171.9,179H12c-6.6,0-12-5.4-12-12V12C0,5.4,5.4,0,12,0h159.9c6.6,0,12,5.4,12,12v155
	C183.9,173.6,178.5,179,171.9,179z"/>
</svg>
