<?xml version="1.0" encoding="utf-8"?>
<!-- Generator: Adobe Illustrator 19.0.0, SVG Export Plug-In . SVG Version: 6.00 Build 0)  -->
<svg version="1.1" id="Layer_1" xmlns="http://www.w3.org/2000/svg" xmlns:xlink="http://www.w3.org/1999/xlink" x="0px" y="0px"
	 viewBox="-307 311 183.9 179" style="enable-background:new -307 311 183.9 179;" xml:space="preserve">
<style type="text/css">
	.st0{fill:#1496C1;}
	.st1{fill:none;stroke:#148BB3;stroke-width:4;stroke-miterlimit:10;}
	.st2{fill:#FFFFFF;}
	.st3{fill:#7BD0E8;}
</style>
<g>
	<path id="XMLID_16_" class="st0" d="M-135.1,490H-295c-6.6,0-12-5.4-12-12V323c0-6.6,5.4-12,12-12h159.9c6.6,0,12,5.4,12,12v155
		C-123.1,484.6-128.5,490-135.1,490z"/>
	<path id="XMLID_57_" class="st1" d="M-135.1,490H-295c-6.6,0-12-5.4-12-12V323c0-6.6,5.4-12,12-12h159.9c6.6,0,12,5.4,12,12v155
		C-123.1,484.6-128.5,490-135.1,490z"/>
	<g id="XMLID_50_">
		<g id="XMLID_38_">
			<path id="XMLID_66_" class="st2" d="M-174.1,438.2l11.8-93.2c-60.4-27.7-101.7,0-101.7,0s9.6,80.5,11,90l-22.6,3.2l60.7,30.1
				l60.2-26.8L-174.1,438.2z"/>
		</g>
		<g id="XMLID_39_">
			<path id="XMLID_58_" class="st3" d="M-221.2,359.3h15.3v5.7c7,0.2,14.1,1.3,21.3,3.3V382c-7.5-3.9-14.7-5.8-21.5-5.8
				c-3.2,0-6.2,0.5-9,1.6c-2.8,1.1-4.1,2.5-4.1,4.4c0,1.4,1,2.6,2.9,3.6c1.9,1,6.2,2.3,12.9,3.9c6.1,1.4,10.8,2.7,14.2,4
				c3.4,1.3,6.3,3.1,8.5,5.3c2.3,2.3,3.4,4.8,3.4,7.5c0,4.2-2.4,8.1-7.1,11.5c-4.8,3.5-12,5.9-21.6,7.2v6.6h-15.3v-5.8
				c-7.2-0.1-15.5-1.3-25-3.7v-14c8.8,4.4,17.3,6.5,25.5,6.5c4.6,0,8.4-0.7,11.5-2.2c3.1-1.4,4.6-3.3,4.6-5.5c0-1.9-1.2-3.4-3.7-4.6
				c-2.5-1.2-6.9-2.5-13.1-3.9c-8.1-1.8-14.3-4.1-18.5-6.7c-4.3-2.6-6.4-5.9-6.4-9.9c0-4,2.1-7.4,6.3-10.2
				c4.2-2.8,10.5-4.9,18.8-6.4V359.3z"/>
		</g>
	</g>
</g>
</svg>
